<?xml version="1.0" encoding="utf-8"?>
<!-- Generator: Adobe Illustrator 23.0.4, SVG Export Plug-In . SVG Version: 6.00 Build 0)  -->
<svg version="1.1" id="Layer_1" xmlns="http://www.w3.org/2000/svg" xmlns:xlink="http://www.w3.org/1999/xlink" x="0px" y="0px"
	 viewBox="0 0 120 51.6" style="enable-background:new 0 0 120 51.6;" xml:space="preserve">
<style type="text/css">
	.st0{fill:#5B90DC;}
	.st1{fill-rule:evenodd;clip-rule:evenodd;fill:#5B90DC;}
	.st2{fill:#231F20;}
</style>
<path id="XMLID_119_" class="st0" d="M24,46h7v3.1H20V32.4h4V46z"/>
<path id="XMLID_116_" class="st0" d="M45.7,41.1c0,1.6-0.3,3.1-0.9,4.3c-0.6,1.3-1.5,2.2-2.6,2.9c-1.1,0.7-2.4,1-3.8,1
	s-2.7-0.3-3.8-1s-2-1.6-2.6-2.8c-0.6-1.2-0.9-2.6-1-4.2v-0.9c0-1.6,0.3-3.1,0.9-4.3c0.6-1.3,1.5-2.2,2.6-2.9c1.1-0.7,2.4-1,3.8-1
	c1.4,0,2.7,0.3,3.8,1s2,1.6,2.6,2.9c0.6,1.2,0.9,2.7,0.9,4.3L45.7,41.1L45.7,41.1z M41.6,40.4c0-1.7-0.3-2.9-0.8-3.8
	c-0.6-0.9-1.3-1.3-2.4-1.3c-2,0-3.1,1.5-3.2,4.5V41c0,1.6,0.3,2.9,0.8,3.8s1.4,1.3,2.4,1.3s1.8-0.4,2.4-1.3c0.6-0.9,0.8-2.1,0.8-3.7
	V40.4z"/>
<path id="XMLID_114_" class="st0" d="M60.9,43.4c-0.1,1.2-0.4,2.2-0.9,3.1c-0.6,0.9-1.4,1.6-2.4,2.1s-2.2,0.7-3.6,0.7
	c-2.2,0-3.9-0.7-5.2-2.1s-1.9-3.5-1.9-6.1v-0.8c0-1.6,0.3-3.1,0.9-4.3c0.6-1.2,1.4-2.2,2.5-2.8c1.1-0.7,2.3-1,3.7-1
	c2,0,3.7,0.5,4.9,1.6s1.9,2.5,2.1,4.4h-4c0-1-0.3-1.7-0.8-2.2c-0.5-0.4-1.2-0.7-2.2-0.7s-1.7,0.4-2.2,1.1c-0.6,0.8-0.8,2-0.8,3.6
	v1.2c0,1.8,0.2,3.1,0.7,3.8c0.4,0.8,1.2,1.1,2.3,1.1c0.9,0,1.6-0.2,2.1-0.7c0.5-0.4,0.7-1.1,0.8-2.1L60.9,43.4L60.9,43.4z"/>
<path id="XMLID_111_" class="st0" d="M71.8,46h-5.5l-1,3.1H61l6.2-16.7H71l6.2,16.7h-4.3L71.8,46z M67.3,42.9h3.6l-1.8-5.8
	L67.3,42.9z"/>
<path id="XMLID_109_" class="st0" d="M89.6,35.5h-5v13.6h-4V35.5h-4.9v-3.1h14L89.6,35.5L89.6,35.5z"/>
<path id="XMLID_106_" class="st0" d="M104.7,41.1c0,1.6-0.3,3.1-0.9,4.3c-0.6,1.3-1.5,2.2-2.6,2.9c-1.1,0.7-2.4,1-3.8,1
	s-2.7-0.3-3.8-1c-1.1-0.7-2-1.6-2.6-2.8c-0.6-1.2-0.9-2.6-1-4.2v-0.9c0-1.6,0.3-3.1,0.9-4.3c0.6-1.3,1.5-2.2,2.6-2.9
	c1.1-0.7,2.4-1,3.8-1s2.7,0.3,3.8,1c1.1,0.7,2,1.6,2.6,2.9c0.6,1.2,0.9,2.7,0.9,4.3L104.7,41.1L104.7,41.1z M100.6,40.4
	c0-1.7-0.3-2.9-0.8-3.8c-0.6-0.9-1.3-1.3-2.4-1.3c-2,0-3.1,1.5-3.2,4.5V41c0,1.6,0.3,2.9,0.8,3.8s1.4,1.3,2.4,1.3s1.8-0.4,2.4-1.3
	s0.8-2.1,0.8-3.7C100.6,41.1,100.6,40.4,100.6,40.4z"/>
<path id="XMLID_103_" class="st0" d="M112.6,43.2h-2.2v5.9h-4V32.4h6.6c2,0,3.5,0.4,4.6,1.3s1.7,2.1,1.7,3.7c0,1.2-0.2,2.1-0.7,2.9
	s-1.2,1.4-2.2,1.9l3.5,6.7v0.2h-4.3L112.6,43.2z M110.4,40.1h2.5c0.8,0,1.3-0.2,1.7-0.6c0.4-0.4,0.6-1,0.6-1.7s-0.2-1.3-0.6-1.7
	c-0.4-0.4-1-0.6-1.7-0.6h-2.5V40.1z"/>
<g id="XMLID_16_">
	<path id="XMLID_99_" class="st1" d="M4.1,6.7c0,2.9,2.3,5.2,5.2,5.2s5.2-2.3,5.2-5.2s-2.3-5.2-5.2-5.2C6.5,1.5,4.1,3.8,4.1,6.7z"/>
	<polygon id="XMLID_96_" class="st1" points="10.8,12.6 9.9,13.8 11.2,17.4 10.6,19.9 9.1,20.3 8.1,17.7 9,13.8 8,12.6 	"/>
	<polygon id="XMLID_93_" class="st1" points="8.4,20.4 5.3,12.6 2.9,13.2 0.1,17.9 0.1,19.3 3.5,26.1 4.6,26.4 12.4,21.8 14.2,20.3 
		13.8,18.4 11.9,20.2 9.8,20.9 7.1,21.1 5.2,18.4 3.9,19.3 5.7,21.7 5.2,22 3,19.1 5.2,17.3 7.6,20.5 	"/>
	<polygon id="XMLID_90_" class="st1" points="11.3,19.7 13.3,12.6 15,13.4 18.3,15.2 18.8,20.6 14.4,25.7 13.5,25.7 9.5,24.4 
		15,20.7 14.2,17 	"/>
	<polygon id="XMLID_87_" class="st1" points="16.5,24.3 14.6,26.5 13.7,26.5 8.9,24.8 4.5,27.2 3.1,26.7 2.5,25.7 2.2,34.2 
		15.8,33.2 17.4,33.3 16.8,26.4 	"/>
	<polygon id="XMLID_84_" class="st1" points="16.6,34 12.2,41.7 5.2,45.7 5.7,48.6 4.1,48.6 1.8,41.9 8.3,38.4 9.5,35.8 8.9,35.6 
		7.8,38 3.5,40.2 2.8,34.7 15.8,33.6 	"/>
	<polygon id="XMLID_81_" class="st1" points="5.8,46 9.2,44 9.2,47.9 6.4,48.5 	"/>
	<polygon id="XMLID_75_" class="st1" points="3,46.9 3.4,48.5 1,48.5 1,48 	"/>
</g>
<path class="st2" d="M34.4,19.9H25l-2.1,5.9h-3l8.6-22.4H31l8.6,22.4h-3L34.4,19.9z M25.9,17.5h7.6L29.7,7L25.9,17.5z"/>
<path class="st2" d="M58.1,22.8c-0.8,1.1-1.8,1.9-3.2,2.4S52,26,50.2,26s-3.4-0.4-4.9-1.3S42.8,22.6,42,21c-0.8-1.6-1.2-3.4-1.2-5.5
	v-2c0-3.4,0.8-6,2.4-7.8c1.6-1.9,3.8-2.8,6.6-2.8c2.3,0,4.2,0.6,5.6,1.8c1.4,1.2,2.3,2.9,2.6,5.1h-3c-0.6-3-2.3-4.5-5.3-4.5
	c-2,0-3.5,0.7-4.5,2.1c-1,1.4-1.5,3.4-1.5,6v2c0,2.5,0.6,4.5,1.7,6c1.1,1.5,2.7,2.2,4.7,2.2c1.1,0,2.1-0.1,2.9-0.4s1.5-0.7,2.1-1.2
	v-5H50v-2.4h8.1V22.8z"/>
<path class="st2" d="M76.5,15.4h-9.7v7.9H78v2.4H63.8V3.3h14.1v2.4H66.8v7.2h9.7V15.4z"/>
<path class="st2" d="M99.4,25.7h-3L85.2,8.5v17.3h-3V3.3h3l11.3,17.3V3.3h2.9V25.7z"/>
<path class="st2" d="M120.1,5.8h-7.2v20H110v-20h-7.2V3.4h17.3C120.1,3.4,120.1,5.8,120.1,5.8z"/>
</svg>
